<svg xmlns="http://www.w3.org/2000/svg" width="21.851" height="23.131" viewBox="0 0 21.851 23.131">
  <g id="Group_54" data-name="Group 54" transform="translate(-53.05 -686.369)">
    <path id="Icon_awesome-crop-alt" data-name="Icon awesome-crop-alt" d="M19.874,15.215H18.245V4.15a1.345,1.345,0,0,0-1.3-1.383H7.819v4.15h6.516V21.094a1.009,1.009,0,0,0,.977,1.037h1.955a1.009,1.009,0,0,0,.977-1.037V19.365h1.629a1.009,1.009,0,0,0,.977-1.037V16.253A1.009,1.009,0,0,0,19.874,15.215ZM6.516,1.037A1.009,1.009,0,0,0,5.539,0H3.584a1.009,1.009,0,0,0-.977,1.037V2.766H.977A1.009,1.009,0,0,0,0,3.8V5.879A1.009,1.009,0,0,0,.977,6.916H2.606V17.982a1.345,1.345,0,0,0,1.3,1.383h9.122v-4.15H6.516Z" transform="translate(53.55 686.869)" fill="#5f5f5f" stroke="#5f5f5f" stroke-width="1"/>
  </g>
</svg>
