<svg xmlns="http://www.w3.org/2000/svg" width="29.167" height="10.768" viewBox="0 0 29.167 10.768">
  <path id="Icon_material-call-end" data-name="Icon material-call-end" d="M14.584,12.931a18.121,18.121,0,0,0-5.59.875v3.767a1.224,1.224,0,0,1-.681,1.094A13.989,13.989,0,0,0,5.08,20.915a1.194,1.194,0,0,1-.851.34,1.211,1.211,0,0,1-.863-.352L.352,17.889A1.162,1.162,0,0,1,0,17.038a1.211,1.211,0,0,1,.352-.863,20.68,20.68,0,0,1,28.462,0,1.232,1.232,0,0,1,0,1.726L25.8,20.915a1.211,1.211,0,0,1-.863.352,1.247,1.247,0,0,1-.851-.34,13.7,13.7,0,0,0-3.245-2.248,1.211,1.211,0,0,1-.681-1.094V13.818A17.641,17.641,0,0,0,14.584,12.931Z" transform="translate(0 -10.5)" fill="#fff"/>
</svg>
