<svg xmlns="http://www.w3.org/2000/svg" width="18.565" height="19.72" viewBox="0 0 18.565 19.72">
  <path id="Icon_ionic-ios-call" data-name="Icon ionic-ios-call" d="M22.518,19.944a15.563,15.563,0,0,0-3.257-2.315c-.976-.5-1.334-.488-2.025.041-.575.442-.947.852-1.609.7a9.639,9.639,0,0,1-3.233-2.541A10.133,10.133,0,0,1,10,12.392c-.14-.708.246-1.1.657-1.71.5-.734.512-1.114.039-2.151a16.344,16.344,0,0,0-2.18-3.46c-.71-.755-.87-.59-1.261-.442A7.034,7.034,0,0,0,6.1,5.281,3.622,3.622,0,0,0,4.714,6.837c-.275.631-.594,1.807,1.029,4.877a27.146,27.146,0,0,0,4.5,6.382h0l0,.005,0,.005h0a25.912,25.912,0,0,0,6.007,4.785c2.89,1.725,4,1.386,4.591,1.094a3.518,3.518,0,0,0,1.464-1.473,7.81,7.81,0,0,0,.614-1.227C23.074,20.868,23.234,20.7,22.518,19.944Z" transform="translate(-4.49 -4.502)" fill="#a8a8a8"/>
</svg>
