<svg xmlns="http://www.w3.org/2000/svg" width="30.5" height="30.5" viewBox="0 0 30.5 30.5">
  <path id="Icon_awesome-phone-alt" data-name="Icon awesome-phone-alt" d="M29.63,21.553l-6.672-2.859a1.43,1.43,0,0,0-1.668.411l-2.955,3.61A22.081,22.081,0,0,1,7.78,12.159L11.39,9.2A1.426,1.426,0,0,0,11.8,7.536L8.942.864A1.439,1.439,0,0,0,7.3.036l-6.2,1.43A1.43,1.43,0,0,0,0,2.859,27.638,27.638,0,0,0,27.641,30.5a1.43,1.43,0,0,0,1.394-1.108l1.43-6.2a1.447,1.447,0,0,0-.835-1.644Z" transform="translate(0 0)" fill="#ffce00"/>
</svg>
