<svg xmlns="http://www.w3.org/2000/svg" width="24.253" height="23.625" viewBox="0 0 24.253 23.625">
  <path id="Path_11" data-name="Path 11" d="M30.128,22.228a1.665,1.665,0,0,1,.23-.844,2.329,2.329,0,0,1,.146-.214,11.139,11.139,0,0,0,1.925-6.245c.021-6.377-5.406-11.55-12.116-11.55A12.012,12.012,0,0,0,8.435,12.566a11.023,11.023,0,0,0-.258,2.365A11.783,11.783,0,0,0,20.1,26.626a14.477,14.477,0,0,0,3.292-.533c.788-.214,1.569-.5,1.772-.574a1.858,1.858,0,0,1,.649-.118,1.827,1.827,0,0,1,.7.138l3.955,1.39a.949.949,0,0,0,.272.069.553.553,0,0,0,.558-.553.882.882,0,0,0-.035-.187Z" transform="translate(-8.177 -3.375)" fill="#fff"/>
</svg>
