<svg xmlns="http://www.w3.org/2000/svg" width="33.186" height="30" viewBox="0 0 33.186 30">
  <path id="Icon_material-favorite-border" data-name="Icon material-favorite-border" d="M27.06,4.5a10,10,0,0,0-7.467,3.417A10,10,0,0,0,12.126,4.5,8.972,8.972,0,0,0,3,13.492c0,6.18,5.642,11.215,14.187,18.866L19.593,34.5,22,32.342c8.545-7.635,14.187-12.67,14.187-18.85A8.972,8.972,0,0,0,27.06,4.5Zm-7.3,25.422-.166.163-.166-.163c-7.9-7.046-13.109-11.706-13.109-16.431A5.63,5.63,0,0,1,12.126,7.77a6.489,6.489,0,0,1,5.924,3.858h3.1A6.448,6.448,0,0,1,27.06,7.77a5.63,5.63,0,0,1,5.808,5.722C32.868,18.217,27.657,22.876,19.759,29.922Z" transform="translate(-3 -4.5)" fill="#fff"/>
</svg>
