<svg xmlns="http://www.w3.org/2000/svg" width="17.779" height="23.705" viewBox="0 0 17.779 23.705">
  <g id="Group_61" data-name="Group 61" transform="translate(-52.3 -36.295)">
    <path id="Icon_awesome-child" data-name="Icon awesome-child" d="M5.556,3.333A3.333,3.333,0,1,1,8.889,6.667,3.333,3.333,0,0,1,5.556,3.333ZM17.345,3.4a1.481,1.481,0,0,0-2.1,0L11.239,7.408H6.54L2.529,3.4a1.482,1.482,0,0,0-2.1,2.1L4.815,9.873v12.35A1.482,1.482,0,0,0,6.3,23.7h.741a1.482,1.482,0,0,0,1.482-1.482V17.038H9.26v5.185A1.482,1.482,0,0,0,10.741,23.7h.741a1.482,1.482,0,0,0,1.482-1.482V9.873l4.381-4.381a1.481,1.481,0,0,0,0-2.1Z" transform="translate(52.3 36.295)" fill="#e6e6e7"/>
  </g>
</svg>
