<svg xmlns="http://www.w3.org/2000/svg" width="22.67" height="22.67" viewBox="0 0 22.67 22.67">
  <g id="Icon_ionic-logo-instagram" data-name="Icon ionic-logo-instagram" transform="translate(-4.5 -4.5)">
    <path id="Path_24" data-name="Path 24" d="M20.558,6.389a4.737,4.737,0,0,1,4.723,4.723v9.446a4.737,4.737,0,0,1-4.723,4.723H11.112a4.737,4.737,0,0,1-4.723-4.723V11.112a4.737,4.737,0,0,1,4.723-4.723h9.446m0-1.889H11.112A6.631,6.631,0,0,0,4.5,11.112v9.446a6.631,6.631,0,0,0,6.612,6.612h9.446a6.631,6.631,0,0,0,6.612-6.612V11.112A6.631,6.631,0,0,0,20.558,4.5Z" fill="#3e3e3e"/>
    <path id="Path_25" data-name="Path 25" d="M25.042,11.834a1.417,1.417,0,1,1,1.417-1.417A1.413,1.413,0,0,1,25.042,11.834Z" transform="translate(-3.067 -0.722)" fill="#3e3e3e"/>
    <path id="Path_26" data-name="Path 26" d="M16.917,13.139a3.778,3.778,0,1,1-3.778,3.778,3.782,3.782,0,0,1,3.778-3.778m0-1.889a5.667,5.667,0,1,0,5.667,5.667,5.669,5.669,0,0,0-5.667-5.667Z" transform="translate(-1.083 -1.083)" fill="#3e3e3e"/>
  </g>
</svg>
