<svg xmlns="http://www.w3.org/2000/svg" width="26.073" height="17.85" viewBox="0 0 26.073 17.85">
  <path id="Icon_awesome-user-friends" data-name="Icon awesome-user-friends" d="M7.822,11.175a4.511,4.511,0,0,0,4.563-4.462A4.511,4.511,0,0,0,7.822,2.25,4.511,4.511,0,0,0,3.259,6.713,4.511,4.511,0,0,0,7.822,11.175Zm3.129,1.275h-.338a6.427,6.427,0,0,1-5.581,0H4.693A4.644,4.644,0,0,0,0,17.04v1.148A1.935,1.935,0,0,0,1.955,20.1H13.688a1.935,1.935,0,0,0,1.955-1.912V17.04A4.644,4.644,0,0,0,10.951,12.45Zm8.6-1.275A3.87,3.87,0,0,0,23.465,7.35a3.912,3.912,0,0,0-7.822,0A3.87,3.87,0,0,0,19.555,11.175ZM21.51,12.45h-.155a5.245,5.245,0,0,1-3.6,0H17.6a4.6,4.6,0,0,0-2.269.614,5.763,5.763,0,0,1,1.617,3.976v1.53c0,.088-.02.171-.024.255h7.194a1.935,1.935,0,0,0,1.955-1.912A4.511,4.511,0,0,0,21.51,12.45Z" transform="translate(0 -2.25)" fill="#ffce00"/>
</svg>
