<svg xmlns="http://www.w3.org/2000/svg" width="21.851" height="24.83" viewBox="0 0 21.851 24.83">
  <g id="Group_53" data-name="Group 53" transform="translate(-53.05 -635.53)">
    <path id="Icon_awesome-lock" data-name="Icon awesome-lock" d="M18.617,10.425H17.5V7.074a7.074,7.074,0,0,0-14.149,0v3.351H2.234A2.235,2.235,0,0,0,0,12.66V21.6A2.235,2.235,0,0,0,2.234,23.83H18.617A2.235,2.235,0,0,0,20.851,21.6V12.66A2.235,2.235,0,0,0,18.617,10.425Zm-4.84,0h-6.7V7.074a3.351,3.351,0,0,1,6.7,0Z" transform="translate(53.55 636.03)" fill="#484747" stroke="#484747" stroke-width="1"/>
  </g>
</svg>
