<svg xmlns="http://www.w3.org/2000/svg" width="29.017" height="28.77" viewBox="0 0 29.017 28.77">
  <g id="Group_57" data-name="Group 57" transform="translate(-322.199 -760.331)">
    <g id="Icon_ionic-ios-chatbubbles" data-name="Icon ionic-ios-chatbubbles" transform="translate(318.824 756.956)">
      <path id="Path_11" data-name="Path 11" d="M30.128,22.228a1.665,1.665,0,0,1,.23-.844,2.329,2.329,0,0,1,.146-.214,11.139,11.139,0,0,0,1.925-6.245c.021-6.377-5.406-11.55-12.116-11.55A12.012,12.012,0,0,0,8.435,12.566a11.023,11.023,0,0,0-.258,2.365A11.783,11.783,0,0,0,20.1,26.626a14.477,14.477,0,0,0,3.292-.533c.788-.214,1.569-.5,1.772-.574a1.858,1.858,0,0,1,.649-.118,1.827,1.827,0,0,1,.7.138l3.955,1.39a.949.949,0,0,0,.272.069.553.553,0,0,0,.558-.553.882.882,0,0,0-.035-.187Z" transform="translate(-0.038)" fill="#fff"/>
      <path id="Path_12" data-name="Path 12" d="M22.243,27.357c-.251.069-.572.145-.921.221a12.978,12.978,0,0,1-2.372.311A11.783,11.783,0,0,1,7.023,16.194a12.966,12.966,0,0,1,.1-1.48c.042-.3.091-.595.16-.885.07-.311.153-.622.244-.927l-.558.491a10.256,10.256,0,0,0-3.6,7.739A10.116,10.116,0,0,0,5.1,26.8c.16.242.251.429.223.553s-.83,4.288-.83,4.288a.552.552,0,0,0,.188.533.571.571,0,0,0,.356.124.5.5,0,0,0,.2-.041l3.913-1.528a1.1,1.1,0,0,1,.4-.076,1.109,1.109,0,0,1,.439.09,11.827,11.827,0,0,0,4.234.83,10.994,10.994,0,0,0,8.377-3.811s.223-.3.481-.664C22.829,27.191,22.536,27.281,22.243,27.357Z" transform="translate(0 -0.156)" fill="#fff"/>
    </g>
  </g>
</svg>
