<svg xmlns="http://www.w3.org/2000/svg" width="17.72" height="17.72" viewBox="0 0 17.72 17.72">
  <g id="Icon_ionic-ios-chatbubbles" data-name="Icon ionic-ios-chatbubbles" transform="translate(-3.375 -3.375)">
    <path id="Path_11" data-name="Path 11" d="M21.582,14.987a1.032,1.032,0,0,1,.141-.52,1.435,1.435,0,0,1,.089-.132,6.9,6.9,0,0,0,1.176-3.846,7.246,7.246,0,0,0-7.4-7.114A7.348,7.348,0,0,0,8.335,9.036a6.845,6.845,0,0,0-.158,1.457,7.226,7.226,0,0,0,7.284,7.2,8.772,8.772,0,0,0,2.011-.328c.481-.132.958-.307,1.082-.354a1.126,1.126,0,0,1,.4-.072,1.107,1.107,0,0,1,.43.085l2.415.856a.576.576,0,0,0,.166.043.339.339,0,0,0,.341-.341.547.547,0,0,0-.021-.115Z" transform="translate(-1.893)" fill="#a8a8a8"/>
    <path id="Path_12" data-name="Path 12" d="M14.9,21.8c-.153.043-.349.089-.562.136a7.862,7.862,0,0,1-1.448.192A7.226,7.226,0,0,1,5.6,14.93a8.053,8.053,0,0,1,.064-.912c.026-.183.055-.366.1-.545s.094-.383.149-.571l-.341.3a6.339,6.339,0,0,0-2.2,4.767,6.268,6.268,0,0,0,1.056,3.493c.1.149.153.264.136.341s-.507,2.641-.507,2.641a.342.342,0,0,0,.115.328.347.347,0,0,0,.217.077.306.306,0,0,0,.124-.026l2.39-.941a.666.666,0,0,1,.511.009A7.169,7.169,0,0,0,10,24.4a6.69,6.69,0,0,0,5.116-2.347s.136-.187.294-.409C15.255,21.7,15.076,21.758,14.9,21.8Z" transform="translate(0 -3.756)" fill="#a8a8a8"/>
  </g>
</svg>
