<svg xmlns="http://www.w3.org/2000/svg" width="21.463" height="21.463" viewBox="0 0 21.463 21.463">
  <path id="Icon_material-account-circle" data-name="Icon material-account-circle" d="M13.732,3A10.732,10.732,0,1,0,24.463,13.732,10.736,10.736,0,0,0,13.732,3Zm0,3.22a3.22,3.22,0,1,1-3.22,3.22A3.215,3.215,0,0,1,13.732,6.22Zm0,15.239A7.727,7.727,0,0,1,7.293,18c.032-2.136,4.293-3.305,6.439-3.305s6.407,1.17,6.439,3.305a7.727,7.727,0,0,1-6.439,3.456Z" transform="translate(-3 -3)" fill="#ffce00"/>
</svg>
