<svg xmlns="http://www.w3.org/2000/svg" width="30" height="33" viewBox="0 0 30 33">
  <g id="Group_53" data-name="Group 53" transform="translate(-91.5 -744.5)">
    <g id="Icon_feather-share-2" data-name="Icon feather-share-2" transform="translate(88.5 743)">
      <path id="Path_13" data-name="Path 13" d="M31.5,7.5A4.5,4.5,0,1,1,27,3a4.5,4.5,0,0,1,4.5,4.5Z" fill="#fff" stroke="#fff" stroke-linecap="round" stroke-linejoin="round" stroke-width="3"/>
      <path id="Path_14" data-name="Path 14" d="M13.5,18A4.5,4.5,0,1,1,9,13.5,4.5,4.5,0,0,1,13.5,18Z" fill="#fff" stroke="#fff" stroke-linecap="round" stroke-linejoin="round" stroke-width="3"/>
      <path id="Path_15" data-name="Path 15" d="M31.5,28.5A4.5,4.5,0,1,1,27,24,4.5,4.5,0,0,1,31.5,28.5Z" fill="#fff" stroke="#fff" stroke-linecap="round" stroke-linejoin="round" stroke-width="3"/>
      <path id="Path_16" data-name="Path 16" d="M12.885,20.265l10.245,5.97" fill="#fff" stroke="#fff" stroke-linecap="round" stroke-linejoin="round" stroke-width="3"/>
      <path id="Path_17" data-name="Path 17" d="M23.115,9.765l-10.23,5.97" fill="#fff" stroke="#fff" stroke-linecap="round" stroke-linejoin="round" stroke-width="3"/>
    </g>
  </g>
</svg>
