<svg xmlns="http://www.w3.org/2000/svg" width="22.794" height="22.794" viewBox="0 0 22.794 22.794">
  <path id="Icon_material-library-books" data-name="Icon material-library-books" d="M5.279,7.559H3V23.514a2.286,2.286,0,0,0,2.279,2.279H21.235V23.514H5.279ZM23.514,3H9.838A2.286,2.286,0,0,0,7.559,5.279V18.956a2.286,2.286,0,0,0,2.279,2.279H23.514a2.286,2.286,0,0,0,2.279-2.279V5.279A2.286,2.286,0,0,0,23.514,3Zm-1.14,10.257h-11.4V10.978h11.4Zm-4.559,4.559H10.978V15.537h6.838ZM22.375,8.7h-11.4V6.419h11.4Z" transform="translate(-3 -3)" fill="#ffce00"/>
</svg>
