<svg xmlns="http://www.w3.org/2000/svg" width="22.334" height="18.659" viewBox="0 0 22.334 18.659">
  <g id="Icon_ionic-ios-volume-high" data-name="Icon ionic-ios-volume-high" transform="translate(-4.535 -6.752)">
    <path id="Path_39" data-name="Path 39" d="M13.335,10.211a.9.9,0,0,0-.4-.093.935.935,0,0,0-.583.2l-3.8,3.067H5.468a.936.936,0,0,0-.933.933v4.665a.936.936,0,0,0,.933.933H8.547l3.8,3.061a.947.947,0,0,0,.583.2.9.9,0,0,0,.4-.093.933.933,0,0,0,.531-.84v-11.2A.935.935,0,0,0,13.335,10.211Z" transform="translate(0 -0.574)" fill="#fff"/>
    <path id="Path_40" data-name="Path 40" d="M30.434,16.08a12.73,12.73,0,0,0-3.814-9.126.7.7,0,0,0-.985,1,11.331,11.331,0,0,1,3.394,8.129h0a11.355,11.355,0,0,1-3.394,8.129.7.7,0,0,0-.006.991.684.684,0,0,0,.5.21.7.7,0,0,0,.49-.2,12.7,12.7,0,0,0,3.819-9.126Z" transform="translate(-3.565 0)" fill="#fff"/>
    <path id="Path_41" data-name="Path 41" d="M26.255,16.578h0a9.471,9.471,0,0,0-2.729-6.7.7.7,0,0,0-1,.985,8.1,8.1,0,0,1,2.327,5.72h0a8.1,8.1,0,0,1-2.327,5.72.7.7,0,0,0,.5,1.2.684.684,0,0,0,.5-.21,9.524,9.524,0,0,0,2.735-6.712Z" transform="translate(-3.036 -0.498)" fill="#fff"/>
    <path id="Path_42" data-name="Path 42" d="M19.968,12.789a.7.7,0,1,0-1,.985,4.667,4.667,0,0,1,1.341,3.3h0a4.687,4.687,0,0,1-1.341,3.3.7.7,0,0,0,.5,1.2.684.684,0,0,0,.5-.21,6.052,6.052,0,0,0,1.744-4.28h0A6.04,6.04,0,0,0,19.968,12.789Z" transform="translate(-2.429 -0.995)" fill="#fff"/>
  </g>
</svg>
