<svg xmlns="http://www.w3.org/2000/svg" width="19.198" height="27.455" viewBox="0 0 19.198 27.455">
  <g id="Group_52" data-name="Group 52" transform="translate(-53.445 -582.5)">
    <g id="Component_24_1" data-name="Component 24 – 1" transform="translate(53.945 583)">
      <path id="Icon_ionic-md-image" data-name="Icon ionic-md-image" d="M22.7,28.016V7.44c0-1.617-.91-2.94-2.022-2.94H6.522C5.41,4.5,4.5,5.823,4.5,7.44V28.016c0,1.617.91,2.94,2.022,2.94H20.676C21.789,30.955,22.7,29.633,22.7,28.016ZM10.061,19.932l2.528,4.409,3.27-6.112.119-.223.149-.279,4.55,8.818H6.522Z" transform="translate(-4.5 -4.5)" fill="none" stroke="#5f5f5f" stroke-width="1"/>
      <path id="Path_49" data-name="Path 49" d="M2474.694-426.942l1.776,4.435,1.464-.56,1.107-3.079,1.607-2.845,2.761,6.159.882,1.449-4.962-.163-4.635.163h-3.15Z" transform="translate(-2468.945 443)" fill="#5f5f5f" stroke="#5f5f5f" stroke-width="1"/>
    </g>
  </g>
</svg>
